# xmcd
#
# Track frame offsets:
#	150
#	13240
#	31573
#	48896
#	66317
#	87741
#	107723
#	122830
#	141639
#	162321
#	179157
#	197702
#	218383
#	236576
#	251674
#	268009
#	285959
#	301536
#	316440
#
# Disc length: 4464 seconds
#
# Revision: 0
# Processed by: cddbd v1.5.1PL0 Copyright (c) Steve Scherf et al.
# Submitted via: audiograbber 1.83.01
#
DISCID=13116e13
DTITLE=Shania Twain - Up!
DYEAR=2003
DGENRE=Country
TTITLE0=Up!
TTITLE1=I´m gonna getcha good !
TTITLE2=She´s not just a pretty face
TTITLE3=Juanita
TTITLE4=Forever and for always
TTITLE5=Ain't no particular way
TTITLE6=It only hurts when I'm breathing
TTITLE7=Nah !
TTITLE8=(Wann get to know you) that´s good
TTITLE9=Cést la ve
TTITLE10=I'm jealous
TTITLE11=Ka-ching
TTITLE12=Thank you baby (for making someday come soon)
TTITLE13=Waiter! bring me water
TTITLE14=What a way to wanna be
TTITLE15=I ain't goin' down
TTITLE16=I´m not in the mood (to say no)!
TTITLE17=In my car (I'll be the driver)
TTITLE18=When you kiss me
EXTD=
EXTT0=
EXTT1=
EXTT2=
EXTT3=
EXTT4=
EXTT5=
EXTT6=
EXTT7=
EXTT8=
EXTT9=
EXTT10=
EXTT11=
EXTT12=
EXTT13=
EXTT14=
EXTT15=
EXTT16=
EXTT17=
EXTT18=
PLAYORDER=
